<?xml version="1.0" encoding="UTF-8" standalone="no"?>
<svg
   xmlns:dc="http://purl.org/dc/elements/1.1/"
   xmlns:cc="http://creativecommons.org/ns#"
   xmlns:rdf="http://www.w3.org/1999/02/22-rdf-syntax-ns#"
   xmlns:svg="http://www.w3.org/2000/svg"
   xmlns="http://www.w3.org/2000/svg"
   version="1.1"
   id="svg2"
   viewBox="0 0 134 36.000001"
   height="36"
   width="134">
  <defs
     id="defs4" />
  <metadata
     id="metadata7">
    <rdf:RDF>
      <cc:Work
         rdf:about="">
        <dc:format>image/svg+xml</dc:format>
        <dc:type
           rdf:resource="http://purl.org/dc/dcmitype/StillImage" />
        <dc:title></dc:title>
      </cc:Work>
    </rdf:RDF>
  </metadata>
  <g
     transform="translate(0,-1016.3622)"
     id="layer1">
    <g
       id="text4136"
       style="font-style:normal;font-weight:normal;font-size:40px;line-height:125%;font-family:sans-serif;letter-spacing:0px;word-spacing:0px;fill:#000000;fill-opacity:1;stroke:none;stroke-width:1px;stroke-linecap:butt;stroke-linejoin:miter;stroke-opacity:1">
      <path
         id="path4141"
         style="font-style:normal;font-variant:normal;font-weight:normal;font-stretch:normal;font-size:50px;font-family:Rachana;-inkscape-font-specification:Rachana;fill:#db383c;fill-opacity:1"
         d="m 18.698821,1044.0483 q 0,-3.5157 -4.052735,-6.25 l -6.8359372,-4.1504 q -4.6386718,-3.1739 -4.9804687,-7.2754 -0.048828,-0.4395 -0.048828,-0.8301 0,-4.6387 3.6621093,-7.1289 2.2460938,-1.416 4.9804686,-1.416 2.197266,0 5.664063,1.2207 1.220703,0.4883 1.80664,0.4883 1.31836,0 1.611328,-1.709 l 1.074219,0 1.074219,10.6445 -1.220703,0 q -1.806641,-6.6406 -6.689453,-8.2031 -1.171875,-0.3906 -2.490235,-0.3906 -3.3691403,0 -4.6874997,2.4902 -0.4882812,0.9277 -0.4882812,2.1484 0,2.9785 4.1503909,5.8594 1.269531,0.8789 3.173828,1.9531 7.470703,4.0039 8.935547,8.252 0.439453,1.2207 0.439453,2.6367 0,4.3945 -3.710938,7.0312 -2.734375,2.0508 -6.49414,2.0508 -2.587891,0 -6.1523441,-1.2207 -1.4160156,-0.4394 -2.0996093,-0.4394 -1.0742188,0 -1.3671875,1.2207 -0.048828,0.1953 -0.048828,0.3906 l -1.0742187,0 -1.5136719,-10.5957 1.171875,0 q 3.0761719,7.5684 8.0566405,8.6426 0.976562,0.1953 2.001953,0.1953 3.857422,0 5.46875,-2.7832 0.683594,-1.2207 0.683594,-2.8321 z" />
      <path
         id="path4143"
         style="font-style:normal;font-variant:normal;font-weight:normal;font-stretch:normal;font-size:50px;font-family:Rachana;-inkscape-font-specification:Rachana;fill:#db383c;fill-opacity:1"
         d="m 62.351164,1049.8588 0,0.9277 -12.74414,0 0,-0.9277 q 3.027344,-0.049 3.36914,-1.1231 0.146485,-0.2441 0.146485,-0.5859 0,-1.2207 -0.976563,-3.3691 l -2.050781,-4.7852 -13.085937,0 -2.294922,5.8594 q -0.439453,1.0254 -0.439453,1.9531 0,2.002 3.417968,2.0508 l 0,0.9277 -9.912109,0 0,-0.9277 q 1.806641,-0.049 2.783203,-1.2695 1.074219,-1.3672 3.417969,-6.9336 l 10.40039,-24.5606 1.025391,0 12.451172,28.3692 q 1.5625,3.2715 2.490234,3.8574 0.634766,0.3906 2.001953,0.5371 z m -24.511718,-11.9141 11.572265,0 -5.810547,-13.7695 -5.761718,13.7695 z" />
      <path
         id="path4145"
         style="font-style:normal;font-variant:normal;font-weight:normal;font-stretch:normal;font-size:50px;font-family:Rachana;-inkscape-font-specification:Rachana;fill:#db383c;fill-opacity:1"
         d="m 98.483977,1049.8588 0,0.9277 -12.744141,0 0,-0.9277 q 3.027344,-0.049 3.369141,-1.1231 0.146484,-0.2441 0.146484,-0.5859 0,-1.2207 -0.976562,-3.3691 l -2.050781,-4.7852 -13.085938,0 -2.294922,5.8594 q -0.439453,1.0254 -0.439453,1.9531 0,2.002 3.417969,2.0508 l 0,0.9277 -9.91211,0 0,-0.9277 q 1.806641,-0.049 2.783204,-1.2695 1.074218,-1.3672 3.417968,-6.9336 l 10.400391,-24.5606 1.025391,0 12.451171,28.3692 q 1.5625,3.2715 2.490235,3.8574 0.634765,0.3906 2.001953,0.5371 z m -24.511719,-11.9141 11.572266,0 -5.810547,-13.7695 -5.761719,13.7695 z" />
      <path
         id="path4147"
         style="font-style:normal;font-variant:normal;font-weight:normal;font-stretch:normal;font-size:50px;font-family:Rachana;-inkscape-font-specification:Rachana;fill:#db383c;fill-opacity:1"
         d="m 133.54257,1034.0873 q 0,7.0313 -4.44336,11.5723 -5.0293,5.1269 -14.79492,5.1269 l -14.20898,0 0,-0.9277 q 3.125,-0.2441 3.80859,-1.2207 0.58594,-0.8301 0.58594,-3.3203 l 0,-22.168 q 0,-2.8808 -0.78125,-3.6133 -0.73243,-0.6347 -3.61328,-0.8789 l 0,-0.9765 13.52539,0 q 13.57421,0 18.11523,8.5449 1.80664,3.5156 1.80664,7.8613 z m -5.41992,0.3418 q 0,-8.0078 -5.27344,-11.9141 -4.0039,-2.9785 -10.64453,-2.9785 -2.09961,0 -2.44141,0.9278 -0.14648,0.3906 -0.14648,1.0254 l 0,25.3906 q 0,1.6113 1.2207,1.9043 0.48828,0.1465 1.36719,0.1465 15.03906,0 15.86914,-12.8907 0.0488,-0.7812 0.0488,-1.6113 z" />
    </g>
  </g>
</svg>
